<svg width="809" height="121" viewBox="0 0 809 121" fill="none" xmlns="http://www.w3.org/2000/svg">
<rect width="809" height="121" fill="white"/>
<path d="M325.496 47.5156H303.367V44.5078H325.496V47.5156ZM331.395 62.5352H299.48V59.5078H331.395V62.5352ZM317.195 77.3789H313.484V61.5586H317.195V77.3789ZM327.332 47.5938C327.332 49.2865 327.312 50.7448 327.273 51.9688C327.234 53.1797 327.111 54.5859 326.902 56.1875C326.707 57.776 326.395 59.5013 325.965 61.3633L322.293 60.9336C322.723 59.1497 323.035 57.4831 323.23 55.9336C323.426 54.3841 323.543 53.0104 323.582 51.8125C323.621 50.6146 323.641 49.2148 323.641 47.6133V44.5078H327.332V47.5938ZM366.691 46.793H344.055V43.8047H366.691V46.793ZM372.082 58.1211H340.051V55.1719H372.082V58.1211ZM368.02 46.0898C368.02 47.8737 367.967 49.5143 367.863 51.0117C367.759 52.4961 367.499 54.1758 367.082 56.0508L363.43 55.6602C363.82 53.8242 364.068 52.2031 364.172 50.7969C364.276 49.3776 364.328 47.8086 364.328 46.0898V43.8047H368.02V46.0898ZM368.059 70.4453H347.551V74.957H343.84V67.5742H364.367V64.2148H343.801V61.3047H368.059V70.4453ZM368.957 76.9492H343.84V74H368.957V76.9492ZM428.418 73.1211H396.387V70.0547H428.418V73.1211ZM414.141 71.3633H410.508V62.8281H414.141V71.3633ZM424.492 55.7188H403.984V62.4375H400.293V52.75H420.84V47.8281H400.234V44.8008H424.492V55.7188ZM425.312 63.8828H400.293V60.8359H425.312V63.8828ZM462.992 48.9023H440.375V45.875H462.992V48.9023ZM468.871 72.3398H436.957V69.293H468.871V72.3398ZM464.691 49.6055C464.691 51.6628 464.672 53.4401 464.633 54.9375C464.594 56.4219 464.483 58.1471 464.301 60.1133C464.118 62.0794 463.819 64.2279 463.402 66.5586L459.633 66.207C460.076 64.0195 460.395 61.9622 460.59 60.0352C460.798 58.1081 460.922 56.3893 460.961 54.8789C461 53.3685 461.02 51.6107 461.02 49.6055V45.875H464.691V49.6055ZM506.551 67.7891H502.859V42.3398H506.551V67.7891ZM507.605 76.6172H483.68V73.5508H507.605V76.6172ZM487.391 74.6641H483.68V65.2109H487.391V74.6641ZM487.566 44.7031C489.311 44.7031 490.893 45.0742 492.312 45.8164C493.745 46.5456 494.865 47.5742 495.672 48.9023C496.479 50.2174 496.883 51.7083 496.883 53.375C496.883 55.0677 496.479 56.5716 495.672 57.8867C494.865 59.2018 493.745 60.2305 492.312 60.9727C490.893 61.7148 489.311 62.0859 487.566 62.0859C485.822 62.0859 484.24 61.7148 482.82 60.9727C481.414 60.2305 480.301 59.2018 479.48 57.8867C478.66 56.5716 478.25 55.0677 478.25 53.375C478.25 51.7083 478.66 50.2174 479.48 48.9023C480.301 47.5742 481.414 46.5456 482.82 45.8164C484.24 45.0742 485.822 44.7031 487.566 44.7031ZM487.566 47.9453C486.499 47.9453 485.529 48.1732 484.656 48.6289C483.784 49.0846 483.1 49.7227 482.605 50.543C482.124 51.3633 481.883 52.3073 481.883 53.375C481.883 54.4427 482.124 55.3932 482.605 56.2266C483.1 57.0599 483.784 57.7044 484.656 58.1602C485.529 58.6159 486.499 58.8438 487.566 58.8438C488.634 58.8438 489.598 58.6159 490.457 58.1602C491.316 57.7044 491.993 57.0599 492.488 56.2266C492.983 55.3932 493.23 54.4427 493.23 53.375C493.23 52.3073 492.983 51.3633 492.488 50.543C491.993 49.7227 491.316 49.0846 490.457 48.6289C489.598 48.1732 488.634 47.9453 487.566 47.9453Z" fill="black"/>
<path d="M96.2001 20H31.4C26.9265 20 23.3 23.6265 23.3 28.1V92.9C23.3 97.3735 26.9265 101 31.4 101H96.2001C100.674 101 104.3 97.3735 104.3 92.9V28.1C104.3 23.6265 100.674 20 96.2001 20Z" fill="white"/>
<path d="M83.44 60.9603C83.44 59.5244 83.3112 58.1437 83.0719 56.8181H64V64.6512H74.8981C74.4287 67.1825 73.0021 69.3272 70.8575 70.7631V75.844H77.4019C81.2309 72.3187 83.44 67.1272 83.44 60.9603Z" fill="#4285F4"/>
<path d="M64 80.75C69.4675 80.75 74.0513 78.9366 77.4017 75.844L70.8573 70.7631C69.0441 71.9781 66.7245 72.696 64 72.696C58.7257 72.696 54.2616 69.1338 52.6691 64.3475H45.9038V69.5941C49.2359 76.2122 56.0841 80.75 64 80.75Z" fill="#34A853"/>
<path d="M52.6691 64.3475C52.2641 63.1325 52.0341 61.8347 52.0341 60.5C52.0341 59.1653 52.2641 57.8675 52.6691 56.6525V51.4059H45.9038C44.5325 54.1397 43.75 57.2325 43.75 60.5C43.75 63.7675 44.5325 66.8603 45.9038 69.5941L52.6691 64.3475Z" fill="#FBBC04"/>
<path d="M64 48.304C66.9729 48.304 69.6423 49.3256 71.741 51.3322L77.5491 45.5241C74.0422 42.2566 69.4582 40.25 64 40.25C56.0841 40.25 49.2359 44.7878 45.9038 51.4059L52.6691 56.6525C54.2616 51.8662 58.7257 48.304 64 48.304Z" fill="#E94235"/>
</svg>
